<?xml version="1.0" encoding="UTF-8" standalone="no"?>
<!-- This is a Stata 15.1 generated SVG file (http://www.stata.com) -->

<svg version="1.1" width="5.50in" height="4.00in" viewBox="0 0 3960 2880" xmlns="http://www.w3.org/2000/svg" xmlns:xlink="http://www.w3.org/1999/xlink">
	<desc>Stata Graph - Graph</desc>
	<rect x="0" y="0" width="3960" height="2880" style="fill:#FFFFFF;stroke:none"/>
	<rect x="0.00" y="0.00" width="3959.88" height="2880.00" style="fill:#FFFFFF"/>
	<rect x="2.88" y="2.88" width="3954.12" height="2874.24" style="fill:none;stroke:#FFFFFF;stroke-width:5.76"/>
	<line x1="410.73" y1="2474.71" x2="3859.02" y2="2474.71" style="stroke:#E0E0E0;stroke-width:8.64"/>
	<line x1="410.73" y1="1906.43" x2="3859.02" y2="1906.43" style="stroke:#E0E0E0;stroke-width:8.64"/>
	<line x1="410.73" y1="1338.15" x2="3859.02" y2="1338.15" style="stroke:#E0E0E0;stroke-width:8.64"/>
	<line x1="410.73" y1="769.87" x2="3859.02" y2="769.87" style="stroke:#E0E0E0;stroke-width:8.64"/>
	<line x1="410.73" y1="201.60" x2="3859.02" y2="201.60" style="stroke:#E0E0E0;stroke-width:8.64"/>
	<rect x="612.93" y="2439.68" width="506.51" height="35.02" style="fill:#4C6C8C"/>
	<rect x="615.81" y="2442.56" width="500.75" height="29.26" style="fill:none;stroke:#4C6C8C;stroke-width:5.76"/>
	<rect x="1458.77" y="2252.44" width="506.51" height="222.26" style="fill:#4C6C8C"/>
	<rect x="1461.64" y="2255.32" width="500.75" height="216.50" style="fill:none;stroke:#4C6C8C;stroke-width:5.76"/>
	<rect x="2304.60" y="1719.81" width="506.51" height="754.90" style="fill:#4C6C8C"/>
	<rect x="2307.48" y="1722.69" width="500.75" height="749.14" style="fill:none;stroke:#4C6C8C;stroke-width:5.76"/>
	<rect x="3150.43" y="552.68" width="506.51" height="1922.02" style="fill:#4C6C8C"/>
	<rect x="3153.31" y="555.56" width="500.75" height="1916.26" style="fill:none;stroke:#4C6C8C;stroke-width:5.76"/>
	<line x1="410.73" y1="2474.71" x2="410.73" y2="100.86" style="stroke:#000000;stroke-width:5.76"/>
	<line x1="410.73" y1="2474.71" x2="370.75" y2="2474.71" style="stroke:#000000;stroke-width:5.76"/>
	<text x="320.77" y="2474.71" style="font-family:'Helvetica';font-size:99.99px;fill:#000000" transform="rotate(-90 320.77,2474.71)" text-anchor="middle">0</text>
	<line x1="410.73" y1="1906.43" x2="370.75" y2="1906.43" style="stroke:#000000;stroke-width:5.76"/>
	<text x="320.77" y="1906.43" style="font-family:'Helvetica';font-size:99.99px;fill:#000000" transform="rotate(-90 320.77,1906.43)" text-anchor="middle">1</text>
	<line x1="410.73" y1="1338.15" x2="370.75" y2="1338.15" style="stroke:#000000;stroke-width:5.76"/>
	<text x="320.77" y="1338.15" style="font-family:'Helvetica';font-size:99.99px;fill:#000000" transform="rotate(-90 320.77,1338.15)" text-anchor="middle">2</text>
	<line x1="410.73" y1="769.87" x2="370.75" y2="769.87" style="stroke:#000000;stroke-width:5.76"/>
	<text x="320.77" y="769.87" style="font-family:'Helvetica';font-size:99.99px;fill:#000000" transform="rotate(-90 320.77,769.87)" text-anchor="middle">3</text>
	<line x1="410.73" y1="201.60" x2="370.75" y2="201.60" style="stroke:#000000;stroke-width:5.76"/>
	<text x="320.77" y="201.60" style="font-family:'Helvetica';font-size:99.99px;fill:#000000" transform="rotate(-90 320.77,201.60)" text-anchor="middle">4</text>
	<text x="190.71" y="1287.78" style="font-family:'Helvetica';font-size:99.99px;fill:#000000" transform="rotate(-90 190.71,1287.78)" text-anchor="middle">Mental health expenditure (% of total health expenditure)</text>
	<line x1="410.73" y1="2474.71" x2="3859.02" y2="2474.71" style="stroke:#000000;stroke-width:5.76"/>
	<text x="866.13" y="2584.61" style="font-family:'Helvetica';font-size:99.99px;fill:#000000" text-anchor="middle">Low</text>
	<text x="1711.96" y="2584.61" style="font-family:'Helvetica';font-size:99.99px;fill:#000000" text-anchor="middle">Lower middle</text>
	<text x="2557.91" y="2584.61" style="font-family:'Helvetica';font-size:99.99px;fill:#000000" text-anchor="middle">Upper middle</text>
	<text x="3403.74" y="2584.61" style="font-family:'Helvetica';font-size:99.99px;fill:#000000" text-anchor="middle">High</text>
	<text x="2134.93" y="2728.87" style="font-family:'Helvetica';font-weight:bold;font-size:110.01px;fill:#000000" text-anchor="middle">Income category</text>
</svg>
