<?xml version="1.0" encoding="UTF-8" standalone="no"?>
<!-- This is a Stata 15.1 generated SVG file (http://www.stata.com) -->

<svg version="1.1" width="5.50in" height="4.00in" viewBox="0 0 3960 2880" xmlns="http://www.w3.org/2000/svg" xmlns:xlink="http://www.w3.org/1999/xlink">
	<desc>Stata Graph - Graph</desc>
	<rect x="0" y="0" width="3960" height="2880" style="fill:#FFFFFF;stroke:none"/>
	<rect x="0.00" y="0.00" width="3959.88" height="2880.00" style="fill:#FFFFFF"/>
	<rect x="2.88" y="2.88" width="3954.12" height="2874.24" style="fill:none;stroke:#FFFFFF;stroke-width:5.76"/>
	<line x1="390.80" y1="2287.59" x2="3859.02" y2="2287.59" style="stroke:#E0E0E0;stroke-width:8.64"/>
	<line x1="390.80" y1="1905.44" x2="3859.02" y2="1905.44" style="stroke:#E0E0E0;stroke-width:8.64"/>
	<line x1="390.80" y1="1523.29" x2="3859.02" y2="1523.29" style="stroke:#E0E0E0;stroke-width:8.64"/>
	<line x1="390.80" y1="1141.26" x2="3859.02" y2="1141.26" style="stroke:#E0E0E0;stroke-width:8.64"/>
	<line x1="390.80" y1="759.11" x2="3859.02" y2="759.11" style="stroke:#E0E0E0;stroke-width:8.64"/>
	<line x1="390.80" y1="376.95" x2="3859.02" y2="376.95" style="stroke:#E0E0E0;stroke-width:8.64"/>
	<rect x="847.32" y="1588.26" width="589.67" height="699.33" style="fill:#8D8D8D"/>
	<rect x="850.20" y="1591.14" width="583.91" height="693.57" style="fill:none;stroke:#707070;stroke-width:5.76"/>
	<rect x="1830.14" y="1729.83" width="589.67" height="557.76" style="fill:#BDE0EB"/>
	<rect x="1833.02" y="1732.71" width="583.91" height="552.00" style="fill:none;stroke:#ADD8E6;stroke-width:5.76"/>
	<rect x="2812.96" y="960.21" width="589.67" height="1327.38" style="fill:#486C8C"/>
	<rect x="2815.84" y="963.09" width="583.91" height="1321.62" style="fill:none;stroke:#1A476F;stroke-width:5.76"/>
	<line x1="1142.09" y1="1765.72" x2="1142.09" y2="1410.67" style="stroke:#000000;stroke-width:8.64"/>
	<line x1="1120.06" y1="1410.67" x2="1164.12" y2="1410.67" stroke-linecap="round" style="stroke:#000000;stroke-width:8.64"/>
	<line x1="1120.06" y1="1765.72" x2="1164.12" y2="1765.72" stroke-linecap="round" style="stroke:#000000;stroke-width:8.64"/>
	<line x1="2124.91" y1="1910.88" x2="2124.91" y2="1548.78" style="stroke:#000000;stroke-width:8.64"/>
	<line x1="2102.88" y1="1548.78" x2="2146.94" y2="1548.78" stroke-linecap="round" style="stroke:#000000;stroke-width:8.64"/>
	<line x1="2102.88" y1="1910.88" x2="2146.94" y2="1910.88" stroke-linecap="round" style="stroke:#000000;stroke-width:8.64"/>
	<line x1="3107.73" y1="1211.30" x2="3107.73" y2="709.11" style="stroke:#000000;stroke-width:8.64"/>
	<line x1="3085.71" y1="709.11" x2="3129.76" y2="709.11" stroke-linecap="round" style="stroke:#000000;stroke-width:8.64"/>
	<line x1="3085.71" y1="1211.30" x2="3129.76" y2="1211.30" stroke-linecap="round" style="stroke:#000000;stroke-width:8.64"/>
	<path d=" M2129.74 357.90 L3102.78 357.90" stroke-linecap="round" stroke-linejoin="round" style="fill:none;stroke:#000000;stroke-width:12.96"/>
	<defs>
		<path id="path_WDoXrOPv" d="M2525.86 407.77 M2525.86 407.77 L2706.66 407.77 L2706.66 307.78 L2525.86 307.78 L2525.86 407.77 Z" stroke-linecap="round"/>
	</defs>
	<defs>
		<clipPath id="clipPath_qrZdmTfI">
			<use xlink:href="#path_WDoXrOPv"/>
		</clipPath>
	</defs>
	<use xlink:href="#path_WDoXrOPv" style="stroke:none;fill:#FFFFFF"/>
	<use xlink:href="#path_WDoXrOPv" style="fill:none;stroke:#FFFFFF;stroke-width:11.52" clip-path="url(#clipPath_qrZdmTfI)"/>
	<text x="2616.32" y="392.80" style="font-family:'Helvetica';font-size:99.99px;fill:#000000" text-anchor="middle"> *** </text>
	<text x="2124.91" y="422.75" style="font-family:'Helvetica';font-size:99.99px;fill:#000000" text-anchor="middle">|</text>
	<text x="3107.73" y="422.75" style="font-family:'Helvetica';font-size:99.99px;fill:#000000" text-anchor="middle">|</text>
	<line x1="390.80" y1="2287.59" x2="390.80" y2="275.35" style="stroke:#000000;stroke-width:5.76"/>
	<line x1="390.80" y1="2287.59" x2="350.83" y2="2287.59" style="stroke:#000000;stroke-width:5.76"/>
	<text x="300.72" y="2287.59" style="font-family:'Helvetica';font-size:99.99px;fill:#000000" transform="rotate(-90 300.72,2287.59)" text-anchor="middle">0</text>
	<line x1="390.80" y1="1905.44" x2="350.83" y2="1905.44" style="stroke:#000000;stroke-width:5.76"/>
	<text x="300.72" y="1905.44" style="font-family:'Helvetica';font-size:99.99px;fill:#000000" transform="rotate(-90 300.72,1905.44)" text-anchor="middle">.2</text>
	<line x1="390.80" y1="1523.29" x2="350.83" y2="1523.29" style="stroke:#000000;stroke-width:5.76"/>
	<text x="300.72" y="1523.29" style="font-family:'Helvetica';font-size:99.99px;fill:#000000" transform="rotate(-90 300.72,1523.29)" text-anchor="middle">.4</text>
	<line x1="390.80" y1="1141.26" x2="350.83" y2="1141.26" style="stroke:#000000;stroke-width:5.76"/>
	<text x="300.72" y="1141.26" style="font-family:'Helvetica';font-size:99.99px;fill:#000000" transform="rotate(-90 300.72,1141.26)" text-anchor="middle">.6</text>
	<line x1="390.80" y1="759.11" x2="350.83" y2="759.11" style="stroke:#000000;stroke-width:5.76"/>
	<text x="300.72" y="759.11" style="font-family:'Helvetica';font-size:99.99px;fill:#000000" transform="rotate(-90 300.72,759.11)" text-anchor="middle">.8</text>
	<line x1="390.80" y1="376.95" x2="350.83" y2="376.95" style="stroke:#000000;stroke-width:5.76"/>
	<text x="300.72" y="376.95" style="font-family:'Helvetica';font-size:99.99px;fill:#000000" transform="rotate(-90 300.72,376.95)" text-anchor="middle">1</text>
	<text x="190.71" y="1281.47" style="font-family:'Helvetica';font-weight:bold;font-size:99.99px;fill:#000000" transform="rotate(-90 190.71,1281.47)" text-anchor="middle">Reduction in suicides per 100,000</text>
	<line x1="390.80" y1="2287.59" x2="3859.02" y2="2287.59" style="stroke:#000000;stroke-width:5.76"/>
	<line x1="1142.09" y1="2287.59" x2="1142.09" y2="2327.56" style="stroke:#000000;stroke-width:5.76"/>
	<text x="1142.09" y="2417.54" style="font-family:'Helvetica';font-size:99.99px;fill:#000000" text-anchor="middle">Average effect</text>
	<text x="1142.09" y="2517.54" style="font-family:'Helvetica';font-size:99.99px;fill:#000000" text-anchor="middle">for all districts</text>
	<line x1="2124.91" y1="2287.59" x2="2124.91" y2="2327.56" style="stroke:#000000;stroke-width:5.76"/>
	<text x="2124.91" y="2417.54" style="font-family:'Helvetica';font-size:99.99px;fill:#000000" text-anchor="middle">Effect for districts</text>
	<text x="2124.91" y="2517.54" style="font-family:'Helvetica';font-size:99.99px;fill:#000000" text-anchor="middle">not in drought</text>
	<line x1="3107.73" y1="2287.59" x2="3107.73" y2="2327.56" style="stroke:#000000;stroke-width:5.76"/>
	<text x="3107.73" y="2417.54" style="font-family:'Helvetica';font-size:99.99px;fill:#000000" text-anchor="middle">Effect for districts</text>
	<text x="3107.73" y="2517.54" style="font-family:'Helvetica';font-size:99.99px;fill:#000000" text-anchor="middle">in drought</text>
	<text x="2124.91" y="2729.16" style="font-family:'Helvetica';font-weight:bold;font-size:99.99px;fill:#000000" text-anchor="middle">Treatment effect of cash transfers</text>
	<text x="2124.91" y="215.98" style="font-family:'Helvetica';font-size:139.96px;fill:#000000" text-anchor="middle">Reductions in suicide rates due to cash transfers</text>
</svg>
