<?xml version="1.0" encoding="UTF-8" standalone="no"?>
<!-- This is a Stata 15.1 generated SVG file (http://www.stata.com) -->

<svg version="1.1" width="5.50in" height="4.00in" viewBox="0 0 3960 2880" xmlns="http://www.w3.org/2000/svg" xmlns:xlink="http://www.w3.org/1999/xlink">
	<desc>Stata Graph - Graph</desc>
	<rect x="0" y="0" width="3960" height="2880" style="fill:#FFFFFF;stroke:none"/>
	<rect x="0.00" y="0.00" width="3959.88" height="2880.00" style="fill:#FFFFFF"/>
	<rect x="2.88" y="2.88" width="3954.12" height="2874.24" style="fill:none;stroke:#FFFFFF;stroke-width:5.76"/>
	<line x1="410.73" y1="2079.19" x2="3859.02" y2="2079.19" style="stroke:#E0E0E0;stroke-width:8.64"/>
	<line x1="410.73" y1="1609.79" x2="3859.02" y2="1609.79" style="stroke:#E0E0E0;stroke-width:8.64"/>
	<line x1="410.73" y1="1140.39" x2="3859.02" y2="1140.39" style="stroke:#E0E0E0;stroke-width:8.64"/>
	<line x1="410.73" y1="670.99" x2="3859.02" y2="670.99" style="stroke:#E0E0E0;stroke-width:8.64"/>
	<line x1="410.73" y1="201.60" x2="3859.02" y2="201.60" style="stroke:#E0E0E0;stroke-width:8.64"/>
	<rect x="546.85" y="2075.48" width="176.34" height="3.71" style="fill:#D9E6EB"/>
	<rect x="549.73" y="2078.36" width="170.58" height="-2.05" style="fill:none;stroke:#D9E6EB;stroke-width:5.76"/>
	<rect x="723.20" y="2071.52" width="176.34" height="7.67" style="fill:#ADD8E6"/>
	<rect x="726.07" y="2074.40" width="170.58" height="1.91" style="fill:none;stroke:#ADD8E6;stroke-width:5.76"/>
	<rect x="899.54" y="2069.54" width="176.34" height="9.65" style="fill:#7B92A8"/>
	<rect x="902.42" y="2072.42" width="170.58" height="3.89" style="fill:none;stroke:#7B92A8;stroke-width:5.76"/>
	<rect x="1075.88" y="2036.99" width="176.34" height="42.20" style="fill:#1A476F"/>
	<rect x="1078.76" y="2039.87" width="170.58" height="36.44" style="fill:none;stroke:#1A476F;stroke-width:5.76"/>
	<rect x="1370.41" y="2024.12" width="176.34" height="55.07" style="fill:#D9E6EB"/>
	<rect x="1373.29" y="2027.00" width="170.58" height="49.31" style="fill:none;stroke:#D9E6EB;stroke-width:5.76"/>
	<rect x="1546.75" y="2056.29" width="176.34" height="22.89" style="fill:#ADD8E6"/>
	<rect x="1549.63" y="2059.17" width="170.58" height="17.13" style="fill:none;stroke:#ADD8E6;stroke-width:5.76"/>
	<rect x="1723.10" y="1969.91" width="176.34" height="109.27" style="fill:#7B92A8"/>
	<rect x="1725.97" y="1972.79" width="170.58" height="103.51" style="fill:none;stroke:#7B92A8;stroke-width:5.76"/>
	<rect x="1899.44" y="1919.42" width="176.47" height="159.77" style="fill:#1A476F"/>
	<rect x="1902.32" y="1922.30" width="170.71" height="154.01" style="fill:none;stroke:#1A476F;stroke-width:5.76"/>
	<rect x="2193.96" y="1899.50" width="176.34" height="179.69" style="fill:#D9E6EB"/>
	<rect x="2196.84" y="1902.38" width="170.58" height="173.93" style="fill:none;stroke:#D9E6EB;stroke-width:5.76"/>
	<rect x="2370.31" y="1912.74" width="176.47" height="166.45" style="fill:#ADD8E6"/>
	<rect x="2373.19" y="1915.62" width="170.71" height="160.69" style="fill:none;stroke:#ADD8E6;stroke-width:5.76"/>
	<rect x="2546.78" y="1445.82" width="176.34" height="633.37" style="fill:#7B92A8"/>
	<rect x="2549.65" y="1448.70" width="170.58" height="627.61" style="fill:none;stroke:#7B92A8;stroke-width:5.76"/>
	<rect x="2723.12" y="1424.28" width="176.34" height="654.91" style="fill:#1A476F"/>
	<rect x="2726.00" y="1427.16" width="170.58" height="649.15" style="fill:none;stroke:#1A476F;stroke-width:5.76"/>
	<rect x="3017.64" y="1442.23" width="176.34" height="636.96" style="fill:#D9E6EB"/>
	<rect x="3020.52" y="1445.11" width="170.58" height="631.20" style="fill:none;stroke:#D9E6EB;stroke-width:5.76"/>
	<rect x="3193.99" y="1221.95" width="176.34" height="857.24" style="fill:#ADD8E6"/>
	<rect x="3196.87" y="1224.83" width="170.58" height="851.48" style="fill:none;stroke:#ADD8E6;stroke-width:5.76"/>
	<rect x="3370.33" y="610.73" width="176.34" height="1468.46" style="fill:#7B92A8"/>
	<rect x="3373.21" y="613.61" width="170.58" height="1462.70" style="fill:none;stroke:#7B92A8;stroke-width:5.76"/>
	<rect x="3546.68" y="241.20" width="176.34" height="1837.99" style="fill:#1A476F"/>
	<rect x="3549.55" y="244.08" width="170.58" height="1832.23" style="fill:none;stroke:#1A476F;stroke-width:5.76"/>
	<line x1="410.73" y1="2079.19" x2="410.73" y2="100.86" style="stroke:#000000;stroke-width:5.76"/>
	<line x1="410.73" y1="2079.19" x2="370.75" y2="2079.19" style="stroke:#000000;stroke-width:5.76"/>
	<text x="320.77" y="2079.19" style="font-family:'Helvetica';font-size:99.99px;fill:#000000" transform="rotate(-90 320.77,2079.19)" text-anchor="middle">0</text>
	<line x1="410.73" y1="1609.79" x2="370.75" y2="1609.79" style="stroke:#000000;stroke-width:5.76"/>
	<text x="320.77" y="1609.79" style="font-family:'Helvetica';font-size:99.99px;fill:#000000" transform="rotate(-90 320.77,1609.79)" text-anchor="middle">10</text>
	<line x1="410.73" y1="1140.39" x2="370.75" y2="1140.39" style="stroke:#000000;stroke-width:5.76"/>
	<text x="320.77" y="1140.39" style="font-family:'Helvetica';font-size:99.99px;fill:#000000" transform="rotate(-90 320.77,1140.39)" text-anchor="middle">20</text>
	<line x1="410.73" y1="670.99" x2="370.75" y2="670.99" style="stroke:#000000;stroke-width:5.76"/>
	<text x="320.77" y="670.99" style="font-family:'Helvetica';font-size:99.99px;fill:#000000" transform="rotate(-90 320.77,670.99)" text-anchor="middle">30</text>
	<line x1="410.73" y1="201.60" x2="370.75" y2="201.60" style="stroke:#000000;stroke-width:5.76"/>
	<text x="320.77" y="201.60" style="font-family:'Helvetica';font-size:99.99px;fill:#000000" transform="rotate(-90 320.77,201.60)" text-anchor="middle">40</text>
	<text x="190.71" y="1090.02" style="font-family:'Helvetica';font-size:99.99px;fill:#000000" transform="rotate(-90 190.71,1090.02)" text-anchor="middle">Number per 100,000 inhabitants</text>
	<line x1="410.73" y1="2079.19" x2="3859.02" y2="2079.19" style="stroke:#000000;stroke-width:5.76"/>
	<text x="899.54" y="2189.09" style="font-family:'Helvetica';font-size:99.99px;fill:#000000" text-anchor="middle">Low</text>
	<text x="1723.10" y="2189.09" style="font-family:'Helvetica';font-size:99.99px;fill:#000000" text-anchor="middle">Lower middle</text>
	<text x="2546.78" y="2189.09" style="font-family:'Helvetica';font-size:99.99px;fill:#000000" text-anchor="middle">Upper middle</text>
	<text x="3370.33" y="2189.09" style="font-family:'Helvetica';font-size:99.99px;fill:#000000" text-anchor="middle">High</text>
	<text x="2134.93" y="2333.35" style="font-family:'Helvetica';font-weight:bold;font-size:110.01px;fill:#000000" text-anchor="middle">Income category</text>
	<rect x="660.21" y="2418.27" width="2639.46" height="326.34" style="fill:#FFFFFF"/>
	<rect x="663.09" y="2421.15" width="2633.70" height="320.58" style="fill:none;stroke:#000000;stroke-width:5.76"/>
	<rect x="703.52" y="2461.46" width="374.34" height="99.99" style="fill:#D9E6EB"/>
	<rect x="706.40" y="2464.34" width="368.58" height="94.23" style="fill:none;stroke:#D9E6EB;stroke-width:5.76"/>
	<rect x="1781.63" y="2461.46" width="374.47" height="99.99" style="fill:#ADD8E6"/>
	<rect x="1784.51" y="2464.34" width="368.71" height="94.23" style="fill:none;stroke:#ADD8E6;stroke-width:5.76"/>
	<rect x="703.52" y="2601.43" width="374.34" height="99.99" style="fill:#7B92A8"/>
	<rect x="706.40" y="2604.31" width="368.58" height="94.23" style="fill:none;stroke:#7B92A8;stroke-width:5.76"/>
	<rect x="1781.63" y="2601.43" width="374.47" height="99.99" style="fill:#1A476F"/>
	<rect x="1784.51" y="2604.31" width="368.71" height="94.23" style="fill:none;stroke:#1A476F;stroke-width:5.76"/>
	<text x="1137.88" y="2539.47" style="font-family:'Helvetica';font-size:79.94px;fill:#000000">Psychiatrists</text>
	<text x="2216.11" y="2539.47" style="font-family:'Helvetica';font-size:79.94px;fill:#000000">Mental health social workers</text>
	<text x="1137.88" y="2679.44" style="font-family:'Helvetica';font-size:79.94px;fill:#000000">Psychologists</text>
	<text x="2216.11" y="2679.44" style="font-family:'Helvetica';font-size:79.94px;fill:#000000">Mental health nurses</text>
</svg>
